<svg width="49" height="38" viewBox="0 0 49 38" fill="none" xmlns="http://www.w3.org/2000/svg">
<path d="M2 9.28571L21.725 22.06C22.5467 22.5925 23.5123 22.8767 24.5 22.8767C25.4877 22.8767 26.4533 22.5925 27.275 22.06L47 9.28571M7 36H42C43.3261 36 44.5979 35.4883 45.5355 34.5774C46.4732 33.6665 47 32.4311 47 31.1429V6.85714C47 5.56895 46.4732 4.33351 45.5355 3.42262C44.5979 2.51173 43.3261 2 42 2H7C5.67392 2 4.40215 2.51173 3.46447 3.42262C2.52678 4.33351 2 5.56895 2 6.85714V31.1429C2 32.4311 2.52678 33.6665 3.46447 34.5774C4.40215 35.4883 5.67392 36 7 36Z" stroke="white" stroke-width="4" stroke-linecap="round" stroke-linejoin="round"/>
</svg>
