<svg width="45" height="42" viewBox="0 0 45 42" fill="none" xmlns="http://www.w3.org/2000/svg">
<g clip-path="url(#clip0_13_1156)">
<path d="M22.5 42C34.9264 42 45 32.598 45 21C45 9.40202 34.9264 0 22.5 0C10.0736 0 0 9.40202 0 21C0 32.598 10.0736 42 22.5 42Z" fill="#F0F0F0"/>
<path d="M28.1565 21.8221H24.1416V35.5501H18.0588V21.8221H15.1658V16.9975H18.0588V13.8755C18.0588 11.6429 19.1951 8.14688 24.1958 8.14688L28.7015 8.16447V12.8475H25.4323C24.8961 12.8475 24.142 13.0976 24.142 14.1626V17.002H28.6879L28.1565 21.8221Z" fill="#1C1C1C"/>
</g>
<defs>
<clipPath id="clip0_13_1156">
<rect width="45" height="42" fill="white"/>
</clipPath>
</defs>
</svg>
