<svg width="42" height="42" viewBox="0 0 42 42" fill="none" xmlns="http://www.w3.org/2000/svg">
<path d="M32.214 7.266C31.7156 7.266 31.2284 7.4138 30.814 7.6907C30.3995 7.9676 30.0766 8.36117 29.8858 8.82164C29.6951 9.28211 29.6452 9.78879 29.7424 10.2776C29.8397 10.7665 30.0797 11.2155 30.4321 11.5679C30.7845 11.9203 31.2335 12.1603 31.7224 12.2576C32.2112 12.3548 32.7179 12.3049 33.1784 12.1142C33.6388 11.9234 34.0324 11.6004 34.3093 11.186C34.5862 10.7716 34.734 10.2844 34.734 9.786C34.734 9.11765 34.4685 8.47668 33.9959 8.00409C33.5233 7.5315 32.8823 7.266 32.214 7.266ZM41.874 12.348C41.8332 10.6056 41.5068 8.88175 40.908 7.245C40.374 5.84458 39.543 4.57648 38.472 3.528C37.4321 2.45159 36.1611 1.62577 34.755 1.113C33.1226 0.495938 31.3968 0.162141 29.652 0.126C27.426 -1.17347e-07 26.712 0 21 0C15.288 0 14.574 -1.17347e-07 12.348 0.126C10.6032 0.162141 8.87742 0.495938 7.245 1.113C5.84152 1.63096 4.57156 2.45608 3.528 3.528C2.45159 4.56787 1.62577 5.83892 1.113 7.245C0.495938 8.87742 0.162141 10.6032 0.126 12.348C-1.17347e-07 14.574 0 15.288 0 21C0 26.712 -1.17347e-07 27.426 0.126 29.652C0.162141 31.3968 0.495938 33.1226 1.113 34.755C1.62577 36.1611 2.45159 37.4321 3.528 38.472C4.57156 39.5439 5.84152 40.369 7.245 40.887C8.87742 41.5041 10.6032 41.8379 12.348 41.874C14.574 42 15.288 42 21 42C26.712 42 27.426 42 29.652 41.874C31.3968 41.8379 33.1226 41.5041 34.755 40.887C36.1611 40.3742 37.4321 39.5484 38.472 38.472C39.5477 37.4274 40.3795 36.1582 40.908 34.755C41.5068 33.1183 41.8332 31.3944 41.874 29.652C41.874 27.426 42 26.712 42 21C42 15.288 42 14.574 41.874 12.348ZM38.094 29.4C38.0787 30.733 37.8373 32.0538 37.38 33.306C37.0447 34.2199 36.5061 35.0457 35.805 35.721C35.1239 36.4151 34.2998 36.9525 33.39 37.296C32.1378 37.7533 30.817 37.9947 29.484 38.01C27.384 38.115 26.607 38.136 21.084 38.136C15.561 38.136 14.784 38.136 12.684 38.01C11.2999 38.0359 9.92165 37.8228 8.61 37.38C7.74014 37.019 6.95385 36.4828 6.3 35.805C5.60299 35.1304 5.07117 34.3039 4.746 33.39C4.2333 32.1198 3.94893 30.7691 3.906 29.4C3.906 27.3 3.78 26.523 3.78 21C3.78 15.477 3.78 14.7 3.906 12.6C3.91541 11.2372 4.1642 9.88668 4.641 8.61C5.0107 7.72361 5.57816 6.93348 6.3 6.3C6.93801 5.57795 7.7265 5.0045 8.61 4.62C9.89006 4.15809 11.2392 3.91667 12.6 3.906C14.7 3.906 15.477 3.78 21 3.78C26.523 3.78 27.3 3.78 29.4 3.906C30.733 3.92129 32.0538 4.16272 33.306 4.62C34.2603 4.97417 35.1168 5.54998 35.805 6.3C36.4932 6.94507 37.0309 7.73374 37.38 8.61C37.8467 9.88876 38.0883 11.2387 38.094 12.6C38.199 14.7 38.22 15.477 38.22 21C38.22 26.523 38.199 27.3 38.094 29.4ZM21 10.227C18.8702 10.2312 16.7894 10.8665 15.0206 12.0528C13.2517 13.2391 11.8742 14.923 11.062 16.8919C10.2499 18.8608 10.0395 21.0262 10.4576 23.1146C10.8756 25.2029 11.9033 27.1205 13.4108 28.6251C14.9182 30.1296 16.8378 31.1535 18.927 31.5675C21.0162 31.9815 23.1812 31.7669 25.1485 30.9509C27.1158 30.1349 28.797 28.7541 29.9799 26.983C31.1627 25.2118 31.794 23.1298 31.794 21C31.7968 19.5827 31.5193 18.1789 30.9776 16.8692C30.4359 15.5595 29.6406 14.3699 28.6374 13.3687C27.6343 12.3675 26.4431 11.5745 25.1324 11.0354C23.8217 10.4962 22.4173 10.2215 21 10.227ZM21 27.993C19.6169 27.993 18.2649 27.5829 17.1149 26.8145C15.9649 26.0461 15.0686 24.9539 14.5393 23.6761C14.01 22.3983 13.8715 20.9922 14.1414 19.6357C14.4112 18.2792 15.0772 17.0332 16.0552 16.0552C17.0332 15.0772 18.2792 14.4112 19.6357 14.1414C20.9922 13.8715 22.3983 14.01 23.6761 14.5393C24.9539 15.0686 26.0461 15.9649 26.8145 17.1149C27.5829 18.2649 27.993 19.6169 27.993 21C27.993 21.9183 27.8121 22.8277 27.4607 23.6761C27.1093 24.5245 26.5942 25.2954 25.9448 25.9448C25.2954 26.5942 24.5245 27.1093 23.6761 27.4607C22.8277 27.8121 21.9183 27.993 21 27.993Z" fill="#F0F0F0"/>
</svg>
