<svg width="42" height="43" viewBox="0 0 42 43" fill="none" xmlns="http://www.w3.org/2000/svg">
<path d="M6.15 36.7025C14.3517 45.0992 27.6471 45.0992 35.8487 36.7025C44.0504 28.3058 44.0504 14.6942 35.8487 6.29753C27.6471 -2.09918 14.3517 -2.09918 6.15 6.29753C-2.05 14.6942 -2.05 28.3058 6.15 36.7025ZM15.4655 8.12925L18.5903 11.3283C19.2152 11.9681 19.3479 12.9571 18.9145 13.7465L17.7402 15.881C17.5992 16.1369 17.544 16.4331 17.5832 16.7242C17.6223 17.0153 17.7536 17.2852 17.9569 17.4926L24.9137 24.6148C25.1165 24.8227 25.3802 24.9568 25.6646 24.9965C25.9489 25.0363 26.2381 24.9795 26.4879 24.8349L28.5727 23.6327C28.9478 23.4163 29.3818 23.3315 29.8084 23.3915C30.2349 23.4514 30.6306 23.6528 30.9348 23.9647L34.0612 27.1655C34.4306 27.5443 34.638 28.0577 34.638 28.593C34.638 29.1283 34.4306 29.6417 34.0612 30.0205L32.5812 31.5358C31.7601 32.3744 30.6916 32.912 29.5416 33.0653C28.3915 33.2187 27.2242 32.9791 26.2208 32.3837L26.0796 32.3012C19.9462 28.7132 14.8161 23.5719 11.1815 17.3704L10.4709 16.1562C9.86689 15.1273 9.61633 13.9211 9.75911 12.7296C9.90188 11.5382 10.4298 10.4298 11.2588 9.58088L12.6767 8.12925C12.8598 7.94162 13.0771 7.79277 13.3164 7.69121C13.5556 7.58965 13.8121 7.53738 14.0711 7.53738C14.3301 7.53738 14.5866 7.58965 14.8259 7.69121C15.0651 7.79277 15.2825 7.94162 15.4655 8.12925Z" fill="white"/>
</svg>
